<?xml version="1.0" standalone="no"?>
<!DOCTYPE svg PUBLIC "-//W3C//DTD SVG 20010904//EN"
 "http://www.w3.org/TR/2001/REC-SVG-20010904/DTD/svg10.dtd">
<svg version="1.0" xmlns="http://www.w3.org/2000/svg"
 width="300.000000pt" height="300.000000pt" viewBox="0 0 300.000000 300.000000"
 preserveAspectRatio="xMidYMid meet">

<g transform="translate(0.000000,300.000000) scale(0.100000,-0.100000)"
fill="#b3171d" stroke="none">
<path d="M2791 2387 c-77 -24 -131 -114 -117 -192 10 -49 65 -109 116 -124
131 -39 250 95 196 222 -18 43 -53 73 -105 92 -49 17 -44 17 -90 2z m115 -23
c77 -36 109 -146 62 -213 -37 -54 -72 -75 -126 -75 -65 0 -111 28 -140 84 -67
130 70 267 204 204z"/>
<path d="M2760 2325 c8 -10 11 -44 9 -105 -4 -85 -3 -90 16 -90 18 0 20 5 17
50 -2 27 0 50 5 50 5 0 26 -22 46 -50 24 -32 45 -50 58 -50 18 0 16 6 -19 48
l-40 48 29 16 c20 12 29 25 29 42 0 37 -35 56 -103 56 -51 0 -58 -2 -47 -15z
m104 -11 c9 -8 16 -22 16 -29 0 -21 -29 -45 -56 -45 -22 0 -24 4 -24 45 0 41
2 45 24 45 14 0 32 -7 40 -16z"/>
<path d="M334 2043 l-72 -4 -6 -57 c-15 -125 -49 -351 -97 -635 -28 -164 -49
-300 -47 -302 1 -2 212 -5 468 -7 l465 -3 58 23 c81 33 135 78 171 142 28 49
31 63 30 135 -1 44 -5 126 -9 182 -9 118 -1 147 52 193 33 29 37 30 136 30
l102 0 80 148 81 147 -51 8 c-77 13 -370 1 -444 -17 -155 -39 -270 -125 -312
-233 -20 -51 -22 -72 -19 -173 7 -229 7 -236 -16 -267 -11 -15 -38 -34 -60
-42 -43 -16 -284 -28 -284 -15 0 14 71 467 76 483 4 11 23 13 97 8 52 -3 100
-9 108 -12 9 -3 27 16 54 57 22 34 63 86 92 115 28 29 47 55 42 58 -5 3 -39
13 -76 21 -69 15 -462 26 -619 17z"/>
<path d="M1719 1895 l-77 -145 135 0 135 0 -6 -27 c-3 -16 -19 -107 -36 -203
-16 -96 -41 -240 -55 -320 -14 -80 -25 -148 -25 -152 0 -5 87 -8 193 -8 l192
0 28 158 c16 86 44 242 63 346 19 105 34 193 34 198 0 4 55 8 123 8 l124 0 17
118 c10 64 20 129 23 145 l6 27 -399 0 -399 0 -76 -145z"/>
</g>
</svg>
